# xmcd CD database file
#
# Track frame offsets:
#	150
#	17133
#	46015
#	77595
#	100529
#	120546
#	140418
#	159539
#	181043
#	200166
#	221917
#	224890
#	249854
#	265303
#
# Disc length: 3960 seconds
#
# Revision: 0
# Processed by: cddbd v1.5.2PL0 Copyright (c) Steve Scherf et al.
# Submitted via: CDex 1.51
#
DISCID=c40f760e
DTITLE=Alissid Jazz! - Tapes on Trees
DYEAR=2006
DGENRE=Jazz
TTITLE0=Factory of Toys
TTITLE1=Tapes on Trees
TTITLE2=Acid River
TTITLE3=Flora
TTITLE4=Kondrashkin Blues
TTITLE5=When You Paint Me Long
TTITLE6=Dance is Over
TTITLE7=Light and Shadow
TTITLE8=Tiger
TTITLE9=Summertime
TTITLE10=Lionito
TTITLE11=Lion
TTITLE12=Animal Fashion
TTITLE13=Hunter
EXTD=YEAR: 2006
EXTT0=
EXTT1=
EXTT2=
EXTT3=
EXTT4=
EXTT5=
EXTT6=
EXTT7=
EXTT8=
EXTT9=
EXTT10=
EXTT11=
EXTT12=
EXTT13=
PLAYORDER=
